<mxfile host="app.diagrams.net" modified="2022-12-20T14:18:27.387Z" agent="5.0 (Macintosh; Intel Mac OS X 10_15_7) AppleWebKit/537.36 (KHTML, like Gecko) Chrome/108.0.0.0 Safari/537.36" version="20.7.4" etag="-l6j7zhUXSYYLRYOK_Ld" type="github">
  <diagram id="DK9FFWtZIJQsgvuGBpdh" name="Page-1">
    <mxGraphModel dx="1604" dy="821" grid="0" gridSize="10" guides="1" tooltips="1" connect="1" arrows="1" fold="1" page="0" pageScale="1" pageWidth="850" pageHeight="1100" math="0" shadow="0">
      <root>
        <mxCell id="0" />
        <mxCell id="1" parent="0" />
        <mxCell id="OEN8ebr0Ogf5Hsco8_dP-31" style="edgeStyle=orthogonalEdgeStyle;rounded=0;orthogonalLoop=1;jettySize=auto;html=1;entryX=0.5;entryY=0;entryDx=0;entryDy=0;" edge="1" parent="1" source="OEN8ebr0Ogf5Hsco8_dP-8" target="OEN8ebr0Ogf5Hsco8_dP-17">
          <mxGeometry relative="1" as="geometry" />
        </mxCell>
        <mxCell id="OEN8ebr0Ogf5Hsco8_dP-36" style="edgeStyle=orthogonalEdgeStyle;rounded=0;orthogonalLoop=1;jettySize=auto;html=1;" edge="1" parent="1" source="OEN8ebr0Ogf5Hsco8_dP-8" target="OEN8ebr0Ogf5Hsco8_dP-3">
          <mxGeometry relative="1" as="geometry" />
        </mxCell>
        <mxCell id="OEN8ebr0Ogf5Hsco8_dP-8" value="&lt;b&gt;subGraph App&lt;/b&gt;&lt;br&gt;&lt;div style=&quot;text-align: left;&quot;&gt;&lt;span style=&quot;background-color: initial;&quot;&gt;- Graph Governance&lt;/span&gt;&lt;/div&gt;&lt;div style=&quot;text-align: left;&quot;&gt;&lt;span style=&quot;background-color: initial;&quot;&gt;- Boiler plate code&lt;/span&gt;&lt;/div&gt;&lt;div style=&quot;text-align: left;&quot;&gt;&lt;span style=&quot;background-color: initial;&quot;&gt;- Defaults configured&lt;br&gt;- Etc.&lt;/span&gt;&lt;/div&gt;" style="rounded=1;whiteSpace=wrap;html=1;fillColor=#d5e8d4;strokeColor=#82b366;" vertex="1" parent="1">
          <mxGeometry x="190" y="270" width="160" height="70" as="geometry" />
        </mxCell>
        <mxCell id="OEN8ebr0Ogf5Hsco8_dP-3" value="BLR/API" style="rounded=1;whiteSpace=wrap;html=1;" vertex="1" parent="1">
          <mxGeometry x="150" y="390" width="70" height="30" as="geometry" />
        </mxCell>
        <mxCell id="OEN8ebr0Ogf5Hsco8_dP-4" value="Pickup Locations" style="rounded=1;whiteSpace=wrap;html=1;" vertex="1" parent="1">
          <mxGeometry x="260" y="490" width="90" height="50" as="geometry" />
        </mxCell>
        <mxCell id="OEN8ebr0Ogf5Hsco8_dP-32" style="edgeStyle=orthogonalEdgeStyle;rounded=0;orthogonalLoop=1;jettySize=auto;html=1;entryX=0.5;entryY=0;entryDx=0;entryDy=0;" edge="1" parent="1" source="OEN8ebr0Ogf5Hsco8_dP-17" target="OEN8ebr0Ogf5Hsco8_dP-4">
          <mxGeometry relative="1" as="geometry" />
        </mxCell>
        <mxCell id="OEN8ebr0Ogf5Hsco8_dP-34" style="edgeStyle=orthogonalEdgeStyle;rounded=0;orthogonalLoop=1;jettySize=auto;html=1;entryX=0.5;entryY=0;entryDx=0;entryDy=0;" edge="1" parent="1" source="OEN8ebr0Ogf5Hsco8_dP-17" target="OEN8ebr0Ogf5Hsco8_dP-33">
          <mxGeometry relative="1" as="geometry" />
        </mxCell>
        <mxCell id="OEN8ebr0Ogf5Hsco8_dP-17" value="&lt;b&gt;SDOG&lt;/b&gt;&lt;br&gt;&lt;div style=&quot;text-align: left;&quot;&gt;&lt;span style=&quot;background-color: initial;&quot;&gt;- Raw Data File&lt;/span&gt;&lt;/div&gt;&lt;div style=&quot;text-align: left;&quot;&gt;&lt;span style=&quot;background-color: initial;&quot;&gt;- Generate resolvers&lt;br&gt;- Extended boilerplate&lt;/span&gt;&lt;/div&gt;" style="rounded=1;whiteSpace=wrap;html=1;fillColor=#d5e8d4;strokeColor=#82b366;" vertex="1" parent="1">
          <mxGeometry x="285" y="390" width="140" height="60" as="geometry" />
        </mxCell>
        <mxCell id="OEN8ebr0Ogf5Hsco8_dP-42" style="edgeStyle=orthogonalEdgeStyle;rounded=0;orthogonalLoop=1;jettySize=auto;html=1;entryX=0.5;entryY=0;entryDx=0;entryDy=0;" edge="1" parent="1" source="OEN8ebr0Ogf5Hsco8_dP-20" target="OEN8ebr0Ogf5Hsco8_dP-39">
          <mxGeometry relative="1" as="geometry" />
        </mxCell>
        <mxCell id="OEN8ebr0Ogf5Hsco8_dP-43" style="edgeStyle=orthogonalEdgeStyle;rounded=0;orthogonalLoop=1;jettySize=auto;html=1;" edge="1" parent="1" source="OEN8ebr0Ogf5Hsco8_dP-20" target="OEN8ebr0Ogf5Hsco8_dP-40">
          <mxGeometry relative="1" as="geometry" />
        </mxCell>
        <mxCell id="OEN8ebr0Ogf5Hsco8_dP-44" style="edgeStyle=orthogonalEdgeStyle;rounded=0;orthogonalLoop=1;jettySize=auto;html=1;" edge="1" parent="1" source="OEN8ebr0Ogf5Hsco8_dP-20" target="OEN8ebr0Ogf5Hsco8_dP-41">
          <mxGeometry relative="1" as="geometry" />
        </mxCell>
        <mxCell id="OEN8ebr0Ogf5Hsco8_dP-20" value="Packages" style="rounded=1;whiteSpace=wrap;html=1;fillColor=#d5e8d4;strokeColor=#82b366;" vertex="1" parent="1">
          <mxGeometry x="450" y="170" width="160" height="30" as="geometry" />
        </mxCell>
        <mxCell id="OEN8ebr0Ogf5Hsco8_dP-37" style="edgeStyle=orthogonalEdgeStyle;rounded=0;orthogonalLoop=1;jettySize=auto;html=1;entryX=0.5;entryY=0;entryDx=0;entryDy=0;" edge="1" parent="1" source="OEN8ebr0Ogf5Hsco8_dP-21" target="OEN8ebr0Ogf5Hsco8_dP-20">
          <mxGeometry relative="1" as="geometry">
            <Array as="points">
              <mxPoint x="310" y="135" />
              <mxPoint x="530" y="135" />
            </Array>
          </mxGeometry>
        </mxCell>
        <mxCell id="OEN8ebr0Ogf5Hsco8_dP-38" style="edgeStyle=orthogonalEdgeStyle;rounded=0;orthogonalLoop=1;jettySize=auto;html=1;entryX=0.5;entryY=0;entryDx=0;entryDy=0;" edge="1" parent="1" source="OEN8ebr0Ogf5Hsco8_dP-21" target="OEN8ebr0Ogf5Hsco8_dP-26">
          <mxGeometry relative="1" as="geometry" />
        </mxCell>
        <mxCell id="OEN8ebr0Ogf5Hsco8_dP-21" value="&lt;b&gt;Generic&lt;/b&gt;&lt;br&gt;&lt;div style=&quot;text-align: left;&quot;&gt;&lt;span style=&quot;background-color: initial;&quot;&gt;- Dependabot&lt;/span&gt;&lt;/div&gt;&lt;div style=&quot;text-align: left;&quot;&gt;&lt;span style=&quot;background-color: initial;&quot;&gt;- Explorer&lt;/span&gt;&lt;/div&gt;&lt;div style=&quot;text-align: left;&quot;&gt;&lt;span style=&quot;background-color: initial;&quot;&gt;- AWS&lt;/span&gt;&lt;/div&gt;&lt;div style=&quot;text-align: left;&quot;&gt;&lt;span style=&quot;background-color: initial;&quot;&gt;- SonarQube&lt;br&gt;- Prettier&amp;nbsp;&lt;br&gt;- Etc.&lt;/span&gt;&lt;/div&gt;" style="rounded=1;whiteSpace=wrap;html=1;fillColor=#d5e8d4;strokeColor=#82b366;" vertex="1" parent="1">
          <mxGeometry x="230" y="10" width="160" height="100" as="geometry" />
        </mxCell>
        <mxCell id="OEN8ebr0Ogf5Hsco8_dP-27" style="edgeStyle=orthogonalEdgeStyle;rounded=0;orthogonalLoop=1;jettySize=auto;html=1;entryX=0.5;entryY=0;entryDx=0;entryDy=0;" edge="1" parent="1" source="OEN8ebr0Ogf5Hsco8_dP-26" target="OEN8ebr0Ogf5Hsco8_dP-8">
          <mxGeometry relative="1" as="geometry" />
        </mxCell>
        <mxCell id="OEN8ebr0Ogf5Hsco8_dP-29" style="edgeStyle=orthogonalEdgeStyle;rounded=0;orthogonalLoop=1;jettySize=auto;html=1;entryX=0.5;entryY=0;entryDx=0;entryDy=0;" edge="1" parent="1" source="OEN8ebr0Ogf5Hsco8_dP-26" target="OEN8ebr0Ogf5Hsco8_dP-28">
          <mxGeometry relative="1" as="geometry" />
        </mxCell>
        <mxCell id="OEN8ebr0Ogf5Hsco8_dP-26" value="&lt;b&gt;Base app&lt;br&gt;&lt;/b&gt;- Deploy&lt;b&gt;&lt;br&gt;&lt;/b&gt;" style="rounded=1;whiteSpace=wrap;html=1;fillColor=#d5e8d4;strokeColor=#82b366;" vertex="1" parent="1">
          <mxGeometry x="85" y="160" width="160" height="30" as="geometry" />
        </mxCell>
        <mxCell id="OEN8ebr0Ogf5Hsco8_dP-47" style="edgeStyle=orthogonalEdgeStyle;rounded=0;orthogonalLoop=1;jettySize=auto;html=1;" edge="1" parent="1" source="OEN8ebr0Ogf5Hsco8_dP-28" target="OEN8ebr0Ogf5Hsco8_dP-45">
          <mxGeometry relative="1" as="geometry">
            <Array as="points">
              <mxPoint x="40" y="354" />
              <mxPoint x="-8" y="354" />
            </Array>
          </mxGeometry>
        </mxCell>
        <mxCell id="OEN8ebr0Ogf5Hsco8_dP-28" value="&lt;b&gt;Data processing App&lt;/b&gt;" style="rounded=1;whiteSpace=wrap;html=1;fillColor=#d5e8d4;strokeColor=#82b366;" vertex="1" parent="1">
          <mxGeometry x="-40" y="270" width="160" height="70" as="geometry" />
        </mxCell>
        <mxCell id="OEN8ebr0Ogf5Hsco8_dP-33" value="FillGrade" style="rounded=1;whiteSpace=wrap;html=1;" vertex="1" parent="1">
          <mxGeometry x="360" y="490" width="90" height="50" as="geometry" />
        </mxCell>
        <mxCell id="OEN8ebr0Ogf5Hsco8_dP-39" value="BlocBuilder" style="rounded=1;whiteSpace=wrap;html=1;" vertex="1" parent="1">
          <mxGeometry x="390" y="260" width="90" height="50" as="geometry" />
        </mxCell>
        <mxCell id="OEN8ebr0Ogf5Hsco8_dP-40" value="Constructs" style="rounded=1;whiteSpace=wrap;html=1;" vertex="1" parent="1">
          <mxGeometry x="485" y="260" width="90" height="50" as="geometry" />
        </mxCell>
        <mxCell id="OEN8ebr0Ogf5Hsco8_dP-41" value="GraphQL constructs" style="rounded=1;whiteSpace=wrap;html=1;" vertex="1" parent="1">
          <mxGeometry x="580" y="260" width="90" height="50" as="geometry" />
        </mxCell>
        <mxCell id="OEN8ebr0Ogf5Hsco8_dP-45" value="BLR" style="rounded=1;whiteSpace=wrap;html=1;" vertex="1" parent="1">
          <mxGeometry x="-43" y="369" width="70" height="30" as="geometry" />
        </mxCell>
      </root>
    </mxGraphModel>
  </diagram>
</mxfile>
